<svg xmlns="http://www.w3.org/2000/svg" class="rad" viewBox="0 0 64 64" width="96" height="96" fill="none" role="img" aria-label="Loading">
  <style>
    /* Two knobs: color is the ink, --rate multiplies every duration. */
    svg { color: #f5f5f7; --rate: 1; }

    .rad { --dur: 2.8s; }

    .rad-ring  { stroke: currentColor; stroke-width: 1; opacity: .16; }
    .rad-cross { stroke: currentColor; stroke-width: 1; opacity: .13; }

    /* SVG has no conic gradient, so the tail is graded wedges */
    .rad-sweep {
      transform-box: view-box;
      transform-origin: center;
      animation: rad-sweep calc(var(--dur) * var(--rate, 1)) linear infinite;
    }

    /* each blip is delayed by its own bearing over 360, so it flares exactly
       as the leading edge crosses it */
    .rad-blip {
      fill: currentColor;
      transform-box: fill-box;
      transform-origin: center;
      opacity: 0;
      animation: rad-blip calc(var(--dur) * var(--rate, 1)) ease-out infinite;
      animation-delay: calc(var(--bearing) / 360 * var(--dur) * var(--rate, 1));
    }

    @keyframes rad-sweep { from { transform: rotate(0deg); } to { transform: rotate(360deg); } }
    @keyframes rad-blip {
      0%   { opacity: 1; transform: scale(1.25); }
      45%  { opacity: .35; transform: scale(1); }
      100% { opacity: 0; transform: scale(1); }
    }

    @media (prefers-reduced-motion: reduce) {
      .rad-sweep { animation: none; transform: rotate(214deg); }
      .rad-blip  { animation: none; opacity: .7; }
    }
  </style>

  <defs><clipPath id="rad-disc"><circle cx="32" cy="32" r="32"/></clipPath></defs>
  <circle class="rad-ring" cx="32" cy="32" r="31.5"/>
  <circle class="rad-ring" cx="32" cy="32" r="15"/>
  <line class="rad-cross" x1="0.5" y1="32" x2="63.5" y2="32"/>
  <line class="rad-cross" x1="32" y1="0.5" x2="32" y2="63.5"/>
  <g clip-path="url(#rad-disc)">
    <g class="rad-sweep">
      <path d="M32,32L32.00,0.50A31.5,31.5 0 0,1 33.37,0.53Z" fill="currentColor" opacity="0.000"/>
      <path d="M32,32L33.37,0.53A31.5,31.5 0 0,1 34.75,0.62Z" fill="currentColor" opacity="0.001"/>
      <path d="M32,32L34.75,0.62A31.5,31.5 0 0,1 36.11,0.77Z" fill="currentColor" opacity="0.005"/>
      <path d="M32,32L36.11,0.77A31.5,31.5 0 0,1 37.47,0.98Z" fill="currentColor" opacity="0.010"/>
      <path d="M32,32L37.47,0.98A31.5,31.5 0 0,1 38.82,1.25Z" fill="currentColor" opacity="0.017"/>
      <path d="M32,32L38.82,1.25A31.5,31.5 0 0,1 40.15,1.57Z" fill="currentColor" opacity="0.026"/>
      <path d="M32,32L40.15,1.57A31.5,31.5 0 0,1 41.47,1.96Z" fill="currentColor" opacity="0.036"/>
      <path d="M32,32L41.47,1.96A31.5,31.5 0 0,1 42.77,2.40Z" fill="currentColor" opacity="0.047"/>
      <path d="M32,32L42.77,2.40A31.5,31.5 0 0,1 44.05,2.90Z" fill="currentColor" opacity="0.060"/>
      <path d="M32,32L44.05,2.90A31.5,31.5 0 0,1 45.31,3.45Z" fill="currentColor" opacity="0.074"/>
      <path d="M32,32L45.31,3.45A31.5,31.5 0 0,1 46.55,4.06Z" fill="currentColor" opacity="0.089"/>
      <path d="M32,32L46.55,4.06A31.5,31.5 0 0,1 47.75,4.72Z" fill="currentColor" opacity="0.106"/>
      <path d="M32,32L47.75,4.72A31.5,31.5 0 0,1 48.92,5.43Z" fill="currentColor" opacity="0.124"/>
      <path d="M32,32L48.92,5.43A31.5,31.5 0 0,1 50.07,6.20Z" fill="currentColor" opacity="0.143"/>
      <path d="M32,32L50.07,6.20A31.5,31.5 0 0,1 51.18,7.01Z" fill="currentColor" opacity="0.163"/>
      <path d="M32,32L51.18,7.01A31.5,31.5 0 0,1 52.25,7.87Z" fill="currentColor" opacity="0.185"/>
      <path d="M32,32L52.25,7.87A31.5,31.5 0 0,1 53.28,8.78Z" fill="currentColor" opacity="0.208"/>
      <path d="M32,32L53.28,8.78A31.5,31.5 0 0,1 54.27,9.73Z" fill="currentColor" opacity="0.232"/>
      <path d="M32,32L54.27,9.73A31.5,31.5 0 0,1 55.22,10.72Z" fill="currentColor" opacity="0.257"/>
      <path d="M32,32L55.22,10.72A31.5,31.5 0 0,1 56.13,11.75Z" fill="currentColor" opacity="0.283"/>
      <path d="M32,32L56.13,11.75A31.5,31.5 0 0,1 56.99,12.82Z" fill="currentColor" opacity="0.310"/>
      <path d="M32,32L56.99,12.82A31.5,31.5 0 0,1 57.80,13.93Z" fill="currentColor" opacity="0.339"/>
      <path d="M32,32L57.80,13.93A31.5,31.5 0 0,1 58.57,15.08Z" fill="currentColor" opacity="0.369"/>
      <path d="M32,32L58.57,15.08A31.5,31.5 0 0,1 59.28,16.25Z" fill="currentColor" opacity="0.399"/>
      <path d="M32,32L59.28,16.25A31.5,31.5 0 0,1 59.94,17.45Z" fill="currentColor" opacity="0.431"/>
      <path d="M32,32L59.94,17.45A31.5,31.5 0 0,1 60.55,18.69Z" fill="currentColor" opacity="0.464"/>
      <path d="M32,32L60.55,18.69A31.5,31.5 0 0,1 61.10,19.95Z" fill="currentColor" opacity="0.498"/>
      <path d="M32,32L61.10,19.95A31.5,31.5 0 0,1 61.60,21.23Z" fill="currentColor" opacity="0.533"/>
      <path d="M32,32L61.60,21.23A31.5,31.5 0 0,1 62.04,22.53Z" fill="currentColor" opacity="0.569"/>
      <path d="M32,32L62.04,22.53A31.5,31.5 0 0,1 62.43,23.85Z" fill="currentColor" opacity="0.606"/>
      <path d="M32,32L62.43,23.85A31.5,31.5 0 0,1 62.75,25.18Z" fill="currentColor" opacity="0.644"/>
      <path d="M32,32L62.75,25.18A31.5,31.5 0 0,1 63.02,26.53Z" fill="currentColor" opacity="0.683"/>
      <path d="M32,32L63.02,26.53A31.5,31.5 0 0,1 63.23,27.89Z" fill="currentColor" opacity="0.723"/>
      <path d="M32,32L63.23,27.89A31.5,31.5 0 0,1 63.38,29.25Z" fill="currentColor" opacity="0.765"/>
      <path d="M32,32L63.38,29.25A31.5,31.5 0 0,1 63.47,30.63Z" fill="currentColor" opacity="0.807"/>
      <path d="M32,32L63.47,30.63A31.5,31.5 0 0,1 63.50,32.00Z" fill="currentColor" opacity="0.850"/>
    </g>
  </g>
    <circle class="rad-blip" cx="49.15" cy="18.60" r="2" style="--bearing:52"/>
    <circle class="rad-blip" cx="39.12" cy="43.40" r="2" style="--bearing:148"/>
    <circle class="rad-blip" cx="17.68" cy="53.22" r="2" style="--bearing:214"/>
    <circle class="rad-blip" cx="18.27" cy="20.48" r="2" style="--bearing:310"/>
</svg>
